<svg width="44" height="44" viewBox="0 0 44 44" fill="none" xmlns="http://www.w3.org/2000/svg">
<path d="M13.6667 17.0001C13.6667 16.5398 14.0398 16.1667 14.5 16.1667H29.5C29.9602 16.1667 30.3333 16.5398 30.3333 17.0001C30.3333 17.4603 29.9602 17.8334 29.5 17.8334H14.5C14.0398 17.8334 13.6667 17.4603 13.6667 17.0001Z" fill="#2D3648"/>
<path d="M13.6667 22.0001C13.6667 21.5398 14.0398 21.1667 14.5 21.1667H29.5C29.9602 21.1667 30.3333 21.5398 30.3333 22.0001C30.3333 22.4603 29.9602 22.8334 29.5 22.8334H14.5C14.0398 22.8334 13.6667 22.4603 13.6667 22.0001Z" fill="#2D3648"/>
<path d="M14.5 26.1667C14.0398 26.1667 13.6667 26.5398 13.6667 27.0001C13.6667 27.4603 14.0398 27.8334 14.5 27.8334H29.5C29.9602 27.8334 30.3333 27.4603 30.3333 27.0001C30.3333 26.5398 29.9602 26.1667 29.5 26.1667H14.5Z" fill="#2D3648"/>
<rect x="1" y="1" width="42" height="42" rx="5" stroke="#2D3648" stroke-width="2"/>
</svg>
