<svg width="44" height="44" viewBox="0 0 44 44" fill="none" xmlns="http://www.w3.org/2000/svg">
<rect x="1" y="1" width="42" height="42" rx="5" stroke="#2D3648" stroke-width="2"/>
<g clip-path="url(#clip0_38_2291)">
<path d="M30.3333 26.0999V28.5999C30.3343 28.832 30.2867 29.0617 30.1937 29.2744C30.1008 29.487 29.9644 29.6779 29.7934 29.8348C29.6224 29.9917 29.4205 30.1112 29.2006 30.1855C28.9808 30.2599 28.7478 30.2875 28.5167 30.2666C25.9523 29.988 23.4892 29.1117 21.325 27.7083C19.3115 26.4288 17.6044 24.7217 16.325 22.7083C14.9166 20.5343 14.0402 18.0591 13.7667 15.4833C13.7458 15.2528 13.7732 15.0206 13.8471 14.8013C13.9209 14.582 14.0396 14.3805 14.1956 14.2096C14.3516 14.0387 14.5415 13.9022 14.7531 13.8087C14.9648 13.7152 15.1936 13.6668 15.425 13.6666H17.925C18.3294 13.6626 18.7215 13.8058 19.0281 14.0695C19.3348 14.3332 19.535 14.6995 19.5917 15.0999C19.6972 15.9 19.8929 16.6855 20.175 17.4416C20.2871 17.7399 20.3114 18.064 20.2449 18.3757C20.1784 18.6873 20.024 18.9733 19.8 19.1999L18.7417 20.2583C19.9279 22.3445 21.6554 24.072 23.7417 25.2583L24.8 24.1999C25.0266 23.9759 25.3126 23.8215 25.6243 23.755C25.9359 23.6885 26.26 23.7128 26.5583 23.8249C27.3144 24.107 28.0999 24.3027 28.9 24.4083C29.3048 24.4654 29.6745 24.6693 29.9388 24.9812C30.203 25.2931 30.3435 25.6912 30.3333 26.0999Z" stroke="#2D3648" stroke-width="2" stroke-linecap="round" stroke-linejoin="round"/>
</g>
<defs>
<clipPath id="clip0_38_2291">
<rect width="20" height="20" fill="white" transform="translate(12 12)"/>
</clipPath>
</defs>
</svg>
