<svg width="24" height="24" viewBox="0 0 24 24" fill="none" xmlns="http://www.w3.org/2000/svg">
<g clip-path="url(#clip0_18_3089)">
<path fill-rule="evenodd" clip-rule="evenodd" d="M17.8098 2.15363C16.7207 1.88114 15.5743 1.94969 14.5255 2.34999C13.4767 2.7503 12.5761 3.46306 11.9456 4.39186C11.322 5.31046 10.9923 6.39655 10.9997 7.50622C9.74241 7.41172 8.51247 7.07171 7.38061 6.50202C5.95765 5.78579 4.73391 4.72877 3.81837 3.42509L3.00001 3.9998L2.10558 3.55259C2.09764 3.56849 2.09014 3.58453 2.08309 3.60071L2.08014 3.60747L2.06857 3.63439C2.05911 3.65665 2.04622 3.68745 2.03045 3.72638C1.99892 3.80421 1.95578 3.91469 1.90529 4.05433C1.80443 4.3333 1.67359 4.73058 1.54749 5.21817C1.29649 6.1887 1.05772 7.54209 1.12604 9.04521C1.19457 10.5527 1.57344 12.2314 2.57707 13.8161C3.32943 15.004 4.4116 16.1052 5.91475 17.0328C4.39638 17.7323 2.72657 18.0677 1.03976 18.0006C0.577035 17.9822 0.162209 18.2839 0.0371604 18.7298C-0.0878882 19.1757 0.109558 19.6491 0.514369 19.874C5.29088 22.5276 10.6509 22.5523 14.8449 20.32C19.0631 18.0748 22 13.5997 22 7.4998L22 7.4965C21.9995 7.33424 21.9918 7.17217 21.9769 7.01077C22.9425 5.93937 23.6291 4.64295 23.9716 3.23642L23 2.9998L22.4236 2.18264C21.7151 2.68238 20.9448 3.08639 20.1326 3.38491C19.4723 2.79436 18.6758 2.37032 17.8098 2.15363ZM3.12398 8.95439C3.07428 7.86104 3.22097 6.84478 3.40466 6.04341C4.29726 6.95228 5.33586 7.71188 6.48143 8.28848C8.199 9.15299 10.1037 9.57931 12.0259 9.52946C12.5679 9.51541 13 9.07199 13 8.5298V7.5298L12.9999 7.5164C12.9904 6.80357 13.2 6.105 13.6004 5.51518C14.0008 4.92535 14.5727 4.47273 15.2387 4.21852C15.9047 3.96431 16.6327 3.92078 17.3243 4.09382C18.0159 4.26686 18.6376 4.64812 19.1055 5.18604C19.3636 5.48283 19.7717 5.60074 20.1483 5.48733C20.38 5.41758 20.6092 5.34086 20.8357 5.2573C20.6469 5.50396 20.4406 5.73811 20.2178 5.9578C19.9802 6.19218 19.8751 6.52969 19.9378 6.85755C19.9784 7.06981 19.9992 7.28537 20 7.50147C19.9995 12.9006 17.4365 16.675 13.9052 18.5546C11.307 19.9374 8.13028 20.3232 4.96011 19.5155C6.23421 19.1486 7.4507 18.5813 8.56164 17.8272C8.86207 17.6233 9.02834 17.2725 8.99605 16.9109C8.96375 16.5492 8.73795 16.2335 8.40615 16.086C6.31605 15.1571 5.0403 13.9675 4.26671 12.746C3.48909 11.5182 3.18046 10.1969 3.12398 8.95439Z" fill="currentColor"/>
</g>
<defs>
<clipPath id="clip0_18_3089">
<rect width="24" height="24" fill="white"/>
</clipPath>
</defs>
</svg>
